<svg width="32" height="33" viewBox="0 0 32 33" fill="none" xmlns="http://www.w3.org/2000/svg">
<path fill-rule="evenodd" clip-rule="evenodd" d="M10.5049 4.02826C11.2551 3.27812 12.2725 2.85669 13.3334 2.85669H18.6667C19.7276 2.85669 20.745 3.27812 21.4951 4.02826C22.2453 4.77841 22.6667 5.79582 22.6667 6.85669V8.19002H26.6667C28.8758 8.19002 30.6667 9.98088 30.6667 12.19V25.5234C30.6667 27.7325 28.8758 29.5234 26.6667 29.5234H5.33337C3.12423 29.5234 1.33337 27.7325 1.33337 25.5234V12.19C1.33337 9.98088 3.12423 8.19002 5.33337 8.19002H9.33337V6.85669C9.33337 5.79582 9.7548 4.77841 10.5049 4.02826ZM9.33337 10.8567H5.33337C4.59699 10.8567 4.00004 11.4536 4.00004 12.19V25.5234C4.00004 26.2597 4.59699 26.8567 5.33337 26.8567H9.33337V10.8567ZM12 26.8567V10.8567H20V26.8567H12ZM22.6667 26.8567H26.6667C27.4031 26.8567 28 26.2597 28 25.5234V12.19C28 11.4536 27.4031 10.8567 26.6667 10.8567H22.6667V26.8567ZM20 8.19002H12V6.85669C12 6.50307 12.1405 6.16393 12.3906 5.91388C12.6406 5.66383 12.9798 5.52336 13.3334 5.52336H18.6667C19.0203 5.52336 19.3595 5.66383 19.6095 5.91388C19.8596 6.16393 20 6.50307 20 6.85669V8.19002Z" fill="#CFBB95"/>
</svg>
