<svg width="32" height="33" viewBox="0 0 32 33" fill="none" xmlns="http://www.w3.org/2000/svg">
<path fill-rule="evenodd" clip-rule="evenodd" d="M6.66663 6.85665C5.93025 6.85665 5.33329 7.4536 5.33329 8.18998V26.8566C5.33329 27.593 5.93025 28.19 6.66663 28.19H25.3333C26.0697 28.19 26.6666 27.593 26.6666 26.8566V8.18998C26.6666 7.4536 26.0697 6.85665 25.3333 6.85665H6.66663ZM2.66663 8.18998C2.66663 5.98084 4.45749 4.18998 6.66663 4.18998H25.3333C27.5424 4.18998 29.3333 5.98084 29.3333 8.18998V26.8566C29.3333 29.0658 27.5424 30.8566 25.3333 30.8566H6.66663C4.45749 30.8566 2.66663 29.0658 2.66663 26.8566V8.18998Z" fill="#CFBB95"/>
<path fill-rule="evenodd" clip-rule="evenodd" d="M21.3333 1.52332C22.0697 1.52332 22.6666 2.12027 22.6666 2.85665V8.18998C22.6666 8.92636 22.0697 9.52331 21.3333 9.52331C20.5969 9.52331 20 8.92636 20 8.18998V2.85665C20 2.12027 20.5969 1.52332 21.3333 1.52332Z" fill="#CFBB95"/>
<path fill-rule="evenodd" clip-rule="evenodd" d="M10.6666 1.52332C11.403 1.52332 12 2.12027 12 2.85665V8.18998C12 8.92636 11.403 9.52331 10.6666 9.52331C9.93025 9.52331 9.33329 8.92636 9.33329 8.18998V2.85665C9.33329 2.12027 9.93025 1.52332 10.6666 1.52332Z" fill="#CFBB95"/>
<path fill-rule="evenodd" clip-rule="evenodd" d="M2.66663 13.5233C2.66663 12.7869 3.26358 12.19 3.99996 12.19H28C28.7363 12.19 29.3333 12.7869 29.3333 13.5233C29.3333 14.2597 28.7363 14.8566 28 14.8566H3.99996C3.26358 14.8566 2.66663 14.2597 2.66663 13.5233Z" fill="#CFBB95"/>
</svg>
