<svg width="33" height="33" viewBox="0 0 33 33" fill="none" xmlns="http://www.w3.org/2000/svg">
<path d="M7.77729 7.80903H9.87253V11.9995H7.77729V7.80903Z" fill="#CFBB95"/>
<path d="M7.77729 14.0947H9.87253V18.2852H7.77729V14.0947Z" fill="#CFBB95"/>
<path d="M14.063 7.80903H16.1582V11.9995H14.063V7.80903Z" fill="#CFBB95"/>
<path d="M14.063 14.0947H16.1582V18.2852H14.063V14.0947Z" fill="#CFBB95"/>
<path d="M7.77729 20.3805H9.87253V24.5709H7.77729V20.3805Z" fill="#CFBB95"/>
<path d="M14.063 20.3805H16.1582V24.5709H14.063V20.3805Z" fill="#CFBB95"/>
<path d="M30.8249 14.0947C30.8249 13.5391 30.6042 13.0061 30.2112 12.6132C29.8183 12.2203 29.2854 11.9995 28.7297 11.9995H22.444V3.61855C22.444 3.06286 22.2232 2.52993 21.8303 2.137C21.4373 1.74406 20.9044 1.52332 20.3487 1.52332H3.58682C3.03112 1.52332 2.49819 1.74406 2.10526 2.137C1.71232 2.52993 1.49158 3.06286 1.49158 3.61855V30.8567H30.8249V14.0947ZM3.58682 3.61855H20.3487V28.7614H3.58682V3.61855ZM22.444 28.7614V14.0947H28.7297V28.7614H22.444Z" fill="#CFBB95"/>
</svg>
