<svg width="33" height="33" viewBox="0 0 33 33" fill="none" xmlns="http://www.w3.org/2000/svg">
<g clip-path="url(#clip0_24_4684)">
<path fill-rule="evenodd" clip-rule="evenodd" d="M19.3615 3.51423C20.4133 3.07843 21.5406 2.85413 22.6791 2.85413C23.8175 2.85413 24.9448 3.07843 25.9966 3.51423C27.0481 3.94994 28.0036 4.58853 28.8083 5.39353C29.6133 6.19827 30.2523 7.15414 30.6881 8.2057C31.1239 9.25745 31.3482 10.3848 31.3482 11.5232C31.3482 12.6617 31.1239 13.789 30.6881 14.8408C30.2523 15.8924 29.6136 16.8479 28.8085 17.6527L17.0219 29.4394C16.5012 29.9601 15.6569 29.9601 15.1362 29.4394L3.34958 17.6527C1.72394 16.0271 0.810669 13.8222 0.810669 11.5232C0.810669 9.22423 1.72394 7.01939 3.34958 5.39375C4.97522 3.76811 7.18006 2.85484 9.47906 2.85484C11.7781 2.85484 13.9829 3.76811 15.6085 5.39375L16.0791 5.86428L16.5494 5.39397C17.3541 4.58887 18.3099 3.94998 19.3615 3.51423ZM22.6791 5.52079C21.8909 5.52079 21.1104 5.67608 20.3823 5.97779C19.6542 6.27949 18.9926 6.7217 18.4354 7.27915L17.0219 8.6927C16.5012 9.2134 15.6569 9.2134 15.1362 8.6927L13.7229 7.27937C12.5974 6.15383 11.0708 5.52151 9.47906 5.52151C7.8873 5.52151 6.36074 6.15383 5.2352 7.27937C4.10966 8.40491 3.47734 9.93147 3.47734 11.5232C3.47734 13.115 4.10966 14.6415 5.2352 15.7671L16.0791 26.6109L26.9229 15.7671C27.4804 15.2099 27.9228 14.5481 28.2245 13.82C28.5262 13.0918 28.6815 12.3114 28.6815 11.5232C28.6815 10.7351 28.5262 9.95461 28.2245 9.22648C27.9228 8.49834 27.4806 7.83678 26.9231 7.27959C26.3659 6.72214 25.7039 6.27949 24.9758 5.97779C24.2477 5.67608 23.4672 5.52079 22.6791 5.52079Z" fill="#CFBB95"/>
</g>
<defs>
<clipPath id="clip0_24_4684">
<rect width="32" height="32" fill="white" transform="translate(0.0791016 0.189941)"/>
</clipPath>
</defs>
</svg>
