<svg width="64" height="65" viewBox="0 0 64 65" fill="none" xmlns="http://www.w3.org/2000/svg">
<rect y="0.189941" width="64" height="64" rx="32" fill="#EFEBE3"/>
<path fill-rule="evenodd" clip-rule="evenodd" d="M36 29.1899C34.6739 29.1899 33.4021 29.7167 32.4645 30.6544C31.5268 31.5921 31 32.8639 31 34.1899V40.1899H33V34.1899C33 33.3943 33.3161 32.6312 33.8787 32.0686C34.4413 31.506 35.2043 31.1899 36 31.1899C36.7957 31.1899 37.5587 31.506 38.1213 32.0686C38.6839 32.6312 39 33.3943 39 34.1899V40.1899H41V34.1899C41 32.8639 40.4732 31.5921 39.5355 30.6544C38.5979 29.7167 37.3261 29.1899 36 29.1899ZM36 27.1899C34.1435 27.1899 32.363 27.9274 31.0503 29.2402C29.7375 30.5529 29 32.3334 29 34.1899V41.1899C29 41.7422 29.4477 42.1899 30 42.1899H34C34.5523 42.1899 35 41.7422 35 41.1899V34.1899C35 33.9247 35.1054 33.6704 35.2929 33.4828C35.4804 33.2953 35.7348 33.1899 36 33.1899C36.2652 33.1899 36.5196 33.2953 36.7071 33.4828C36.8946 33.6704 37 33.9247 37 34.1899V41.1899C37 41.7422 37.4477 42.1899 38 42.1899H42C42.5523 42.1899 43 41.7422 43 41.1899V34.1899C43 32.3334 42.2625 30.5529 40.9497 29.2402C39.637 27.9274 37.8565 27.1899 36 27.1899Z" fill="#0E1E37"/>
<path fill-rule="evenodd" clip-rule="evenodd" d="M21 29.1899C21 28.6377 21.4477 28.1899 22 28.1899H26C26.5523 28.1899 27 28.6377 27 29.1899V41.1899C27 41.7422 26.5523 42.1899 26 42.1899H22C21.4477 42.1899 21 41.7422 21 41.1899V29.1899ZM23 30.1899V40.1899H25V30.1899H23Z" fill="#0E1E37"/>
<path fill-rule="evenodd" clip-rule="evenodd" d="M24 23.1899C23.4477 23.1899 23 23.6377 23 24.1899C23 24.7422 23.4477 25.1899 24 25.1899C24.5523 25.1899 25 24.7422 25 24.1899C25 23.6377 24.5523 23.1899 24 23.1899ZM21 24.1899C21 22.5331 22.3431 21.1899 24 21.1899C25.6569 21.1899 27 22.5331 27 24.1899C27 25.8468 25.6569 27.1899 24 27.1899C22.3431 27.1899 21 25.8468 21 24.1899Z" fill="#0E1E37"/>
</svg>
