<svg width="1440" height="806" viewBox="0 0 1440 806" fill="none" xmlns="http://www.w3.org/2000/svg">
<path d="M416.073 268.084L416.535 268.549L416.073 269.011L381.02 304.225L380.553 304.694L380.086 304.224L212.432 135.746L100.804 247.924L100.336 248.393L64.2696 212.148L212.427 63.4634L416.073 268.084ZM66.1254 212.149L100.336 246.527L212.432 133.881L380.553 302.828L414.679 268.546L212.426 65.3262L66.1254 212.149Z" fill="#E4F2FF"/>
<path d="M215.567 414.254L327.663 301.609L363.268 337.389L363.729 337.854L215.572 486.538L11.4644 281.452L46.9786 245.776L47.4464 245.307L215.567 414.254ZM13.3188 281.452L215.572 484.674L361.872 337.851L327.661 303.473L216.033 415.65L215.567 416.12L215.1 415.65L47.4451 247.172L13.3188 281.452Z" fill="#E4F2FF"/>
</svg>
