<svg width="25" height="25" viewBox="0 0 25 25" fill="none" xmlns="http://www.w3.org/2000/svg">
<path fill-rule="evenodd" clip-rule="evenodd" d="M12.5 3.69C7.52944 3.69 3.5 7.71944 3.5 12.69C3.5 17.6606 7.52944 21.69 12.5 21.69C17.4706 21.69 21.5 17.6606 21.5 12.69C21.5 7.71944 17.4706 3.69 12.5 3.69ZM1.5 12.69C1.5 6.61487 6.42487 1.69 12.5 1.69C18.5751 1.69 23.5 6.61487 23.5 12.69C23.5 18.7651 18.5751 23.69 12.5 23.69C6.42487 23.69 1.5 18.7651 1.5 12.69ZM12.5 7.69C13.0523 7.69 13.5 8.13772 13.5 8.69V11.69H16.5C17.0523 11.69 17.5 12.1377 17.5 12.69C17.5 13.2423 17.0523 13.69 16.5 13.69H13.5V16.69C13.5 17.2423 13.0523 17.69 12.5 17.69C11.9477 17.69 11.5 17.2423 11.5 16.69V13.69H8.5C7.94772 13.69 7.5 13.2423 7.5 12.69C7.5 12.1377 7.94772 11.69 8.5 11.69H11.5V8.69C11.5 8.13772 11.9477 7.69 12.5 7.69Z" fill="#CFBB95"/>
</svg>
