<svg width="32" height="33" viewBox="0 0 32 33" fill="none" xmlns="http://www.w3.org/2000/svg">
<path fill-rule="evenodd" clip-rule="evenodd" d="M16.0002 4.19001C9.37274 4.19001 4.00016 9.56259 4.00016 16.19C4.00016 22.8174 9.37274 28.19 16.0002 28.19C22.6276 28.19 28.0002 22.8174 28.0002 16.19C28.0002 9.56259 22.6276 4.19001 16.0002 4.19001ZM1.3335 16.19C1.3335 8.08984 7.89999 1.52335 16.0002 1.52335C24.1003 1.52335 30.6668 8.08984 30.6668 16.19C30.6668 24.2902 24.1003 30.8567 16.0002 30.8567C7.89999 30.8567 1.3335 24.2902 1.3335 16.19ZM16.0002 9.52335C16.7365 9.52335 17.3335 10.1203 17.3335 10.8567V14.8567H21.3335C22.0699 14.8567 22.6668 15.4536 22.6668 16.19C22.6668 16.9264 22.0699 17.5233 21.3335 17.5233H17.3335V21.5233C17.3335 22.2597 16.7365 22.8567 16.0002 22.8567C15.2638 22.8567 14.6668 22.2597 14.6668 21.5233V17.5233H10.6668C9.93045 17.5233 9.3335 16.9264 9.3335 16.19C9.3335 15.4536 9.93045 14.8567 10.6668 14.8567H14.6668V10.8567C14.6668 10.1203 15.2638 9.52335 16.0002 9.52335Z" fill="#3263AC"/>
</svg>
