<svg width="32" height="33" viewBox="0 0 32 33" fill="none" xmlns="http://www.w3.org/2000/svg">
<path fill-rule="evenodd" clip-rule="evenodd" d="M16.0002 1.52333C16.5077 1.52333 16.9712 1.81143 17.1958 2.2665L21.0059 9.98529L29.5264 11.2307C30.0285 11.3041 30.4454 11.6561 30.6019 12.1388C30.7584 12.6214 30.6273 13.1511 30.2638 13.5051L24.0996 19.5092L25.5543 27.9913C25.6401 28.4915 25.4345 28.9971 25.0238 29.2954C24.6132 29.5937 24.0688 29.633 23.6196 29.3968L16.0002 25.3898L8.3808 29.3968C7.93158 29.633 7.38719 29.5937 6.97656 29.2954C6.56592 28.9971 6.36026 28.4915 6.44606 27.9913L7.90084 19.5092L1.73656 13.5051C1.37307 13.1511 1.24204 12.6214 1.39854 12.1388C1.55504 11.6561 1.97195 11.3041 2.47403 11.2307L10.9945 9.98529L14.8046 2.2665C15.0292 1.81143 15.4927 1.52333 16.0002 1.52333ZM16.0002 5.869L13.0758 11.7935C12.8818 12.1866 12.5068 12.4592 12.073 12.5226L5.53142 13.4788L10.2638 18.0882C10.5783 18.3945 10.7219 18.836 10.6477 19.2687L9.53111 25.7789L15.3796 22.7032C15.7681 22.4989 16.2323 22.4989 16.6208 22.7032L22.4693 25.7789L21.3527 19.2687C21.2785 18.836 21.4221 18.3945 21.7366 18.0882L26.469 13.4788L19.9274 12.5226C19.4936 12.4592 19.1186 12.1866 18.9246 11.7935L16.0002 5.869Z" fill="#3263AC"/>
</svg>
