<svg width="25" height="25" viewBox="0 0 25 25" fill="none" xmlns="http://www.w3.org/2000/svg">
<path fill-rule="evenodd" clip-rule="evenodd" d="M12.5 1.69C12.8806 1.69 13.2283 1.90607 13.3967 2.24738L16.2543 8.03647L22.6447 8.97052C23.0212 9.02556 23.3339 9.28956 23.4513 9.65157C23.5687 10.0136 23.4704 10.4108 23.1978 10.6764L18.5746 15.1794L19.6656 21.541C19.73 21.9161 19.5757 22.2953 19.2678 22.5191C18.9598 22.7428 18.5515 22.7723 18.2146 22.5951L12.5 19.5899L6.78548 22.5951C6.44856 22.7723 6.04027 22.7428 5.7323 22.5191C5.42432 22.2953 5.27007 21.9161 5.33442 21.541L6.42551 15.1794L1.8023 10.6764C1.52968 10.4108 1.43141 10.0136 1.54878 9.65157C1.66616 9.28956 1.97884 9.02556 2.3554 8.97052L8.74577 8.03647L11.6033 2.24738C11.7718 1.90607 12.1194 1.69 12.5 1.69ZM12.5 4.94926L10.3067 9.39263C10.1612 9.68747 9.88001 9.89193 9.55466 9.93949L4.64844 10.6566L8.19776 14.1136C8.43364 14.3434 8.5413 14.6745 8.48564 14.999L7.64821 19.8817L12.0346 17.5749C12.326 17.4217 12.6741 17.4217 12.9655 17.5749L17.3518 19.8817L16.5144 14.999C16.4588 14.6745 16.5664 14.3434 16.8023 14.1136L20.3516 10.6566L15.4454 9.93949C15.12 9.89193 14.8389 9.68747 14.6933 9.39263L12.5 4.94926Z" fill="#CFBB95"/>
</svg>
