<svg width="467" height="70" viewBox="0 0 467 70" fill="none" xmlns="http://www.w3.org/2000/svg">
<path d="M24.4546 56.982C24.2626 56.982 24.0706 56.918 23.8146 56.854C22.5986 56.406 21.8946 54.678 21.8946 52.182L21.9586 51.094C22.8546 41.11 31.1746 20.374 32.3266 17.494C29.5746 21.974 13.7026 50.07 4.61462 50.07C3.59063 50.07 2.63063 49.686 1.79863 48.918C0.774625 47.958 0.390625 46.038 0.390625 43.606C0.390625 32.022 9.73463 7.446 11.9106 5.718C12.2946 5.078 12.7426 4.886 13.1906 4.886C13.7026 4.886 14.0866 5.27 14.0866 5.91C14.0866 6.358 13.8306 6.934 13.2546 7.574C10.8866 9.814 1.73463 33.43 1.73463 43.862C1.73463 46.614 2.31063 48.406 3.84663 48.79C4.03863 48.854 4.29463 48.854 4.55063 48.854C14.4706 48.854 35.2706 9.302 39.6866 2.134C39.8146 1.878 40.0066 1.814 40.3266 1.814C40.9026 1.814 41.6706 2.262 41.6706 2.774L41.6066 3.03C35.0146 15.318 25.6706 37.974 23.8146 51.222C23.6866 51.926 23.6226 52.566 23.6226 53.206C23.6226 54.55 23.9426 55.51 24.5826 55.51C25.0306 55.51 25.2866 55.83 25.2866 56.214C25.2866 56.598 25.0306 56.982 24.4546 56.982ZM30.7041 44.886C30.2561 44.886 29.8081 44.694 29.8081 44.182V43.99C30.8321 39.702 32.8801 34.134 35.1841 30.486C35.3761 30.23 35.5681 30.102 35.8881 30.102C36.4641 30.102 37.2321 30.742 37.2321 31.254C37.2321 31.382 37.1681 31.446 37.1041 31.574C34.8001 34.262 32.4321 40.15 31.1521 43.606C32.8801 40.278 37.8081 32.278 40.6241 32.278L41.0081 32.342C41.9041 32.662 42.1601 33.558 42.1601 34.646C42.1601 36.502 41.4561 38.998 41.4561 40.662C41.4561 41.558 41.6481 42.198 42.4161 42.326H42.5441C44.8481 42.326 49.0721 35.734 50.3521 34.134L50.5441 34.006C50.6081 34.006 50.7361 34.134 50.7361 34.198C50.7361 34.262 50.7361 34.326 50.6721 34.39C49.2641 36.31 45.2961 42.966 42.4801 42.966H42.4161C40.1761 42.966 39.7281 41.11 39.7281 39.126C39.7281 37.59 39.9841 35.926 39.9841 34.902C39.9841 34.518 39.9841 34.198 39.7921 34.07L39.6001 34.006C38.1281 34.006 33.1361 41.366 31.4081 44.63C31.2801 44.822 31.0241 44.886 30.7041 44.886ZM64.3041 41.814C65.5841 41.814 70.5121 35.222 70.7041 35.03C70.8321 34.71 71.0241 34.07 71.0241 33.494C71.0241 32.854 70.8321 32.278 70.3841 32.214L70.1281 32.15C67.5681 32.15 63.9841 39.062 63.9841 41.302V41.43C64.0481 41.686 64.1121 41.814 64.3041 41.814ZM69.4881 45.718H69.2961C68.4641 45.718 68.1441 45.078 68.1441 44.118C68.1441 41.75 70.0001 37.59 70.3841 36.758C69.3601 38.166 65.9681 42.71 63.9201 42.71L63.5361 42.646C62.7681 42.454 62.4481 41.75 62.4481 40.79C62.4481 37.526 66.4161 31.126 69.6161 31.126L70.0001 31.19C70.9601 31.382 71.6001 32.086 71.9201 32.918L72.0481 33.302C72.3681 32.918 72.6241 32.662 72.8801 32.534C73.1361 32.342 73.3281 32.278 73.5201 32.278C73.8401 32.278 74.0321 32.47 74.0321 32.79C74.0321 32.982 73.9681 33.238 73.7761 33.494C72.7521 35.222 69.4881 41.942 69.4881 44.182V44.502C69.5521 44.566 69.5521 44.566 69.6161 44.566C70.6401 44.566 78.7041 36.758 81.7761 34.134L82.0321 34.006C82.1601 34.006 82.3521 34.198 82.3521 34.326C82.3521 34.39 82.2881 34.454 82.2241 34.518C79.7921 36.502 70.9601 45.526 69.4881 45.718ZM82.3416 45.526H82.1496C80.4216 45.462 79.3336 44.438 78.9496 42.902C78.8216 42.454 78.7576 41.942 78.7576 41.494C78.7576 37.206 82.6616 31.318 86.4376 31.19C88.0376 31.19 89.2536 32.022 89.2536 33.43C89.2536 34.006 89.0616 34.71 88.4856 35.542C88.2296 35.798 88.0376 35.862 87.8456 35.862C87.5896 35.862 87.4616 35.67 87.4616 35.478C87.4616 35.35 87.5256 35.222 87.5896 35.094C87.8456 34.71 88.2936 33.686 88.2936 32.918C88.2936 32.47 88.1656 32.086 87.7816 31.958C87.5256 31.894 87.3336 31.83 87.0776 31.83C84.0056 31.83 80.4216 38.294 80.4216 42.134C80.4216 43.67 80.9336 44.758 82.2776 44.886H82.5976C86.5656 44.886 93.2856 37.334 96.9976 34.134L97.2536 34.006C97.4456 34.006 97.5096 34.134 97.5096 34.262C97.5096 34.39 97.5096 34.518 97.3816 34.582C92.8376 38.55 86.9496 45.526 82.3416 45.526ZM97.5916 45.526H97.3996C95.6716 45.462 94.5836 44.438 94.1996 42.902C94.0716 42.454 94.0076 41.942 94.0076 41.494C94.0076 37.206 97.9116 31.318 101.688 31.19C103.288 31.19 104.504 32.022 104.504 33.43C104.504 34.006 104.312 34.71 103.736 35.542C103.48 35.798 103.288 35.862 103.096 35.862C102.84 35.862 102.712 35.67 102.712 35.478C102.712 35.35 102.776 35.222 102.84 35.094C103.096 34.71 103.544 33.686 103.544 32.918C103.544 32.47 103.416 32.086 103.032 31.958C102.776 31.894 102.584 31.83 102.328 31.83C99.2556 31.83 95.6716 38.294 95.6716 42.134C95.6716 43.67 96.1836 44.758 97.5276 44.886H97.8476C101.816 44.886 108.536 37.334 112.248 34.134L112.504 34.006C112.696 34.006 112.76 34.134 112.76 34.262C112.76 34.39 112.76 34.518 112.632 34.582C108.088 38.55 102.2 45.526 97.5916 45.526ZM121.866 45.014C121.482 45.014 121.098 44.694 121.098 44.246L121.162 43.99C123.338 36.886 127.37 31.894 127.37 30.294C127.37 29.974 127.242 29.782 126.986 29.718L126.41 29.654C123.914 29.654 118.538 32.214 116.618 32.854C117.258 33.494 117.514 34.39 117.514 35.414C117.514 36.118 117.386 36.886 117.13 37.654C116.234 40.79 113.738 43.862 111.882 43.862L111.498 43.798C110.346 43.478 109.898 42.454 109.898 41.11C109.898 38.294 111.946 34.07 113.162 32.79C113.29 32.662 113.482 32.598 113.674 32.598C114.122 32.598 114.442 32.918 114.442 33.302C114.442 33.494 114.378 33.686 114.25 33.814C112.97 35.158 110.986 39.51 110.986 41.878C110.986 42.518 111.178 43.03 111.562 43.222L111.754 43.286C112.97 43.286 116.362 38.678 116.362 35.478C116.362 34.518 116.042 33.75 115.274 33.174C115.146 33.11 115.082 32.918 115.082 32.79C115.082 32.47 115.274 32.086 115.786 32.086H115.978C117.13 32.086 123.146 28.886 126.41 28.886C127.114 28.886 127.69 29.014 128.074 29.398C128.33 29.718 128.458 30.102 128.458 30.55C128.458 33.11 125.322 37.974 124.682 39.318C127.754 35.478 133.194 29.846 137.162 28.502C137.546 28.374 137.93 28.31 138.314 28.31C139.21 28.31 139.914 28.758 139.914 29.654C139.914 30.038 139.786 30.422 139.594 30.87C138.378 33.686 136.202 39.062 135.306 42.262C138.314 38.166 142.218 33.046 144.778 33.046L145.418 33.11C146.122 33.366 146.442 34.006 146.442 34.774C146.442 37.142 144.138 41.11 144.138 43.286V43.606C144.138 43.734 144.266 43.798 144.394 43.798C144.586 43.798 144.906 43.67 145.098 43.606H145.162C145.418 43.606 145.61 43.862 145.61 44.118C145.61 44.246 145.61 44.31 145.482 44.374C145.29 44.502 145.098 44.566 144.842 44.566C144.074 44.566 143.242 43.862 143.178 43.03V42.71C143.178 40.598 145.162 35.798 145.162 34.262C145.162 33.942 145.098 33.75 144.906 33.686H144.778C141.962 33.686 135.69 42.902 135.37 43.286C135.178 43.542 134.986 43.606 134.73 43.606C134.346 43.606 134.026 43.286 134.026 42.838V42.71C134.858 38.422 136.586 34.07 138.25 30.294L138.378 29.718C138.378 29.334 138.122 29.206 137.802 29.206L137.418 29.27C132.106 30.998 124.426 39.766 122.57 44.502C122.442 44.822 122.186 45.014 121.866 45.014ZM140.155 67.094C139.835 67.094 139.451 66.838 139.451 66.39V66.326C139.707 60.566 150.139 33.302 151.739 30.678C151.867 30.422 152.123 30.294 152.315 30.294C152.571 30.294 152.763 30.486 152.763 30.806L152.699 31.126C150.331 36.31 147.195 45.846 146.491 47.702C148.859 42.774 154.171 30.998 160.059 30.998L160.827 31.062C162.427 31.318 163.515 32.534 163.515 34.07L163.387 34.902C164.795 34.582 167.227 34.198 169.659 33.942C169.915 33.942 170.043 34.134 170.043 34.262C170.043 34.39 169.979 34.582 169.723 34.582C167.099 34.774 165.499 35.158 163.259 35.67C161.851 39.702 157.563 43.158 155.067 43.158C154.299 43.158 153.659 42.838 153.403 42.07L153.275 41.494C153.275 38.934 159.099 36.118 161.531 35.414C161.659 35.03 161.723 34.518 161.723 34.006C161.723 33.238 161.531 32.47 160.699 32.214C160.379 32.086 160.059 32.086 159.739 32.086C155.515 32.086 151.163 40.086 147.387 48.47C144.059 55.83 141.691 64.086 140.859 66.582C140.731 66.966 140.475 67.094 140.155 67.094ZM154.811 42.262C156.539 42.262 160.443 38.102 161.147 36.438C159.675 36.694 154.043 39.574 154.043 41.43V41.686C154.171 42.134 154.427 42.262 154.811 42.262ZM168.367 41.814C169.647 41.814 174.575 35.222 174.767 35.03C174.895 34.71 175.087 34.07 175.087 33.494C175.087 32.854 174.895 32.278 174.447 32.214L174.191 32.15C171.631 32.15 168.047 39.062 168.047 41.302V41.43C168.111 41.686 168.175 41.814 168.367 41.814ZM173.551 45.718H173.359C172.527 45.718 172.207 45.078 172.207 44.118C172.207 41.75 174.063 37.59 174.447 36.758C173.423 38.166 170.031 42.71 167.983 42.71L167.599 42.646C166.831 42.454 166.511 41.75 166.511 40.79C166.511 37.526 170.479 31.126 173.679 31.126L174.063 31.19C175.023 31.382 175.663 32.086 175.983 32.918L176.111 33.302C176.431 32.918 176.687 32.662 176.943 32.534C177.199 32.342 177.391 32.278 177.583 32.278C177.903 32.278 178.095 32.47 178.095 32.79C178.095 32.982 178.031 33.238 177.839 33.494C176.815 35.222 173.551 41.942 173.551 44.182V44.502C173.615 44.566 173.615 44.566 173.679 44.566C174.703 44.566 182.767 36.758 185.839 34.134L186.095 34.006C186.223 34.006 186.415 34.198 186.415 34.326C186.415 34.39 186.351 34.454 186.287 34.518C183.855 36.502 175.023 45.526 173.551 45.718ZM184.932 42.07C185.956 42.07 189.54 39.382 192.676 35.222C192.804 34.326 192.996 33.302 192.996 32.534C192.996 32.022 192.932 31.574 192.676 31.446C192.484 31.318 192.292 31.254 192.036 31.254C189.348 31.254 184.42 38.422 184.42 41.11C184.42 41.558 184.484 41.814 184.74 42.006L184.932 42.07ZM176.1 69.334C175.78 69.334 175.46 69.27 175.14 69.078C174.5 68.694 174.244 68.118 174.244 67.35C174.244 61.974 187.94 47.83 189.86 46.166C191.972 41.43 193.06 38.166 194.148 35.094C192.42 37.398 188.132 42.966 185.252 42.966H185.124C183.524 42.902 182.884 42.006 182.884 40.662C182.884 37.142 187.428 30.678 191.012 30.102L191.652 30.038C193.316 30.038 194.404 31.126 194.404 32.726V33.046C194.724 32.79 194.596 32.726 195.172 31.958C195.876 30.87 196.452 30.486 196.9 30.486C197.476 30.486 197.796 31.19 197.796 31.702L197.732 32.086C197.54 32.598 197.348 32.278 196.9 33.494C195.94 36.182 194.148 39.766 192.356 43.99C196.004 40.086 201.252 34.71 203.3 34.006L203.492 33.942C203.684 33.942 203.876 34.134 203.876 34.326C203.876 34.454 203.812 34.582 203.62 34.646C200.804 36.054 191.972 45.718 191.396 46.422C189.604 50.454 181.22 69.334 176.1 69.334ZM176.036 68.502C179.3 68.502 187.62 50.774 188.452 49.11C186.596 50.39 175.14 63.638 175.14 67.414C175.14 67.606 175.14 67.862 175.268 67.99C175.46 68.31 175.716 68.502 176.036 68.502ZM199.618 45.91C199.17 45.91 198.786 45.59 198.786 45.206L198.85 44.95C200.066 41.238 203.074 33.942 204.994 30.806C205.122 30.55 205.378 30.422 205.634 30.422C206.018 30.422 206.402 30.742 206.402 31.19L206.274 31.574C205.058 33.622 202.754 39.062 201.602 42.006C202.818 40.342 208.962 31.254 212.034 31.254C212.354 31.254 212.61 31.382 212.866 31.574C213.186 31.894 213.314 32.278 213.314 32.854C213.314 35.03 211.01 38.934 211.01 41.366C211.01 42.198 211.266 42.838 211.906 43.222C212.162 43.35 212.482 43.478 212.802 43.478C213.826 43.478 215.298 42.774 216.77 41.686V41.494C216.77 37.462 221.122 31.83 223.618 31.83L224.066 31.894C224.45 32.086 224.77 32.406 224.898 32.982V33.238C224.898 35.03 221.57 38.998 218.05 41.75V41.942C218.05 43.03 218.498 43.862 219.842 44.118L220.418 44.182C224.386 44.182 229.442 36.886 231.426 34.198C231.554 34.07 231.682 34.006 231.81 34.006C231.938 34.006 232.066 34.134 232.066 34.262C232.066 34.326 232.066 34.454 232.002 34.518C230.402 37.142 224.77 45.078 220.546 45.078H220.482C218.306 45.014 217.218 43.99 216.898 42.582C215.298 43.67 213.634 44.374 212.354 44.374C211.906 44.374 211.458 44.31 211.074 44.054C209.922 43.414 209.538 42.262 209.538 40.918C209.538 37.654 212.034 33.366 212.034 32.47L211.97 32.342C211.906 32.278 211.842 32.278 211.714 32.278C209.73 32.278 200.962 44.374 200.194 45.59C200.002 45.782 199.81 45.91 199.618 45.91ZM218.178 40.662C221.186 38.23 223.938 34.966 223.938 33.558V33.43C223.938 33.366 223.81 33.302 223.618 33.238L223.234 33.174C222.722 33.174 221.186 34.774 220.674 35.414C219.97 36.374 218.626 38.678 218.178 40.662ZM228.575 44.822C228.191 44.822 227.807 44.694 227.807 44.31L227.871 44.054C229.215 39.958 231.199 33.43 233.567 29.846C233.759 29.59 234.015 29.526 234.399 29.526C234.975 29.526 235.679 29.846 235.679 30.486C235.679 30.678 235.551 30.934 235.359 31.19C235.039 31.574 234.527 32.086 234.143 32.854C232.927 35.158 231.647 37.846 231.007 39.83C232.671 37.782 239.519 28.566 243.487 28.566C243.999 28.566 244.447 28.694 244.831 29.014C245.215 29.27 245.343 29.782 245.343 30.422C245.343 33.302 242.463 38.998 242.079 41.686C243.871 39.638 248.607 32.982 251.935 32.982L252.639 33.11C253.599 33.43 253.855 34.326 253.855 35.414C253.855 36.694 253.535 38.23 253.535 39.446C253.535 40.534 253.791 41.43 254.943 41.622H255.135C257.183 41.622 261.343 36.886 263.135 34.134C263.199 34.07 263.263 34.006 263.327 34.006C263.455 34.006 263.583 34.134 263.583 34.262V34.39C262.303 36.374 257.887 42.518 254.751 42.518L254.303 42.454C252.063 42.006 251.551 40.15 251.551 38.294C251.551 36.95 251.807 35.606 251.807 34.838C251.807 34.582 251.807 34.454 251.743 34.326C251.615 34.134 251.423 34.07 251.231 34.07C248.927 34.07 242.079 42.902 241.759 43.222C241.631 43.414 241.503 43.478 241.311 43.478C240.863 43.478 240.351 42.966 240.351 42.39V42.326C240.351 39.126 243.295 32.342 243.295 30.806L243.231 30.55C243.103 30.294 242.847 30.166 242.527 30.166C239.711 30.166 230.431 41.366 229.215 44.502C229.151 44.758 228.831 44.822 228.575 44.822ZM264.104 35.414C265.576 35.414 267.752 34.326 267.752 33.238C267.752 33.174 267.752 33.046 267.688 32.918C267.624 32.726 267.368 32.598 267.112 32.598C266.344 32.598 265 33.366 263.592 35.35L264.104 35.414ZM275.048 44.822C274.6 44.822 274.152 44.502 274.152 43.99L274.216 43.67C275.368 40.406 278.696 33.302 278.696 31.766C278.696 31.574 278.632 31.446 278.504 31.446C277.288 31.51 269.544 44.758 264.296 44.758H263.848C261.352 44.374 260.392 42.646 260.392 40.598C260.392 37.078 263.336 32.47 266.28 32.022L266.984 31.958C267.624 31.958 268.072 32.15 268.264 32.534C268.392 32.79 268.456 33.046 268.456 33.238C268.456 34.838 265.896 35.99 263.912 35.99L263.272 35.926C262.312 37.462 261.608 39.318 261.608 40.918C261.608 42.198 262.12 43.286 263.208 43.798C263.528 43.926 263.912 44.054 264.296 44.054C268.904 44.054 275.56 32.598 278.312 30.614C278.568 30.422 278.824 30.358 279.08 30.358C279.592 30.358 280.104 30.742 280.104 31.446C280.104 33.878 276.52 41.174 276.136 42.518C278.056 39.702 281.384 32.15 284.52 32.15H284.648C285.864 32.214 286.184 33.238 286.184 34.582C286.184 36.31 285.672 38.55 285.672 40.214C285.672 41.238 285.864 42.07 286.504 42.454C286.696 42.582 286.888 42.582 287.08 42.582C289.32 42.582 292.968 36.438 294.696 34.07C294.76 34.006 294.824 34.006 294.888 34.006C295.016 34.006 295.144 34.07 295.144 34.198L295.08 34.39C292.648 37.91 289.96 43.35 286.632 43.35H286.44C284.328 43.158 283.88 41.302 283.88 39.254C283.88 37.654 284.2 35.926 284.2 34.774C284.2 34.262 284.072 33.878 283.88 33.75C283.752 33.686 283.688 33.686 283.56 33.686C281.448 33.686 276.52 43.094 275.88 44.31C275.688 44.694 275.368 44.822 275.048 44.822ZM293.746 52.31C292.018 51.99 291.186 50.646 291.186 48.214C291.186 45.782 291.826 42.582 293.042 38.678C294.258 34.774 295.73 30.678 297.522 26.39C299.25 22.166 301.042 18.262 302.77 14.614C296.754 15.126 292.658 15.766 290.546 16.534C290.034 16.726 289.458 16.918 288.882 16.982C288.498 16.982 288.306 16.79 288.306 16.47C288.306 16.15 288.498 15.958 288.946 15.894C294.002 14.806 298.738 14.166 303.154 13.846C306.29 7.382 308.274 3.926 309.106 3.478C309.426 3.286 309.746 3.222 310.066 3.222C310.834 3.222 311.218 3.734 311.218 4.758C311.154 5.846 310.962 6.614 310.514 7.062C310.066 7.51 309.618 7.894 309.106 8.15C308.402 8.47 307.826 8.918 307.378 9.622C307.058 10.134 306.418 11.478 305.33 13.654C308.594 13.462 311.538 13.334 314.162 13.334C318.898 13.334 322.738 13.59 325.618 14.166C327.538 14.614 328.498 15.19 328.498 16.086C328.306 17.046 327.73 17.494 326.898 17.494C326.45 17.494 326.194 17.174 326.194 16.47C326.194 16.278 326.258 16.086 326.322 15.958C323.122 14.806 318.386 14.23 312.178 14.23C309.81 14.23 307.378 14.294 304.946 14.486C300.658 23.382 297.266 31.382 294.77 38.614C293.298 42.902 292.594 46.23 292.594 48.726C292.594 50.198 293.106 50.902 294.13 50.902C295.474 50.71 297.074 49.622 299.058 47.51C301.042 45.462 303.026 43.158 305.074 40.662C307.442 37.782 309.362 35.542 310.962 34.07L311.154 34.006C311.474 34.006 311.666 34.134 311.666 34.39C311.666 34.518 311.602 34.646 311.474 34.71C309.746 36.31 307.762 38.614 305.394 41.622C304.05 43.35 302.642 45.014 301.234 46.614C299.826 48.214 298.482 49.558 297.202 50.646C295.858 51.734 294.706 52.31 293.746 52.31ZM326.467 45.526H326.275C324.547 45.462 323.459 44.438 323.075 42.902C322.947 42.454 322.883 41.942 322.883 41.494C322.883 37.206 326.787 31.318 330.563 31.19C332.163 31.19 333.379 32.022 333.379 33.43C333.379 34.006 333.187 34.71 332.611 35.542C332.355 35.798 332.163 35.862 331.971 35.862C331.715 35.862 331.587 35.67 331.587 35.478C331.587 35.35 331.651 35.222 331.715 35.094C331.971 34.71 332.419 33.686 332.419 32.918C332.419 32.47 332.291 32.086 331.907 31.958C331.651 31.894 331.459 31.83 331.203 31.83C328.131 31.83 324.547 38.294 324.547 42.134C324.547 43.67 325.059 44.758 326.403 44.886H326.723C330.691 44.886 337.411 37.334 341.123 34.134L341.379 34.006C341.571 34.006 341.635 34.134 341.635 34.262C341.635 34.39 341.635 34.518 341.507 34.582C336.963 38.55 331.075 45.526 326.467 45.526ZM350.741 45.014C350.357 45.014 349.973 44.694 349.973 44.246L350.037 43.99C352.213 36.886 356.245 31.894 356.245 30.294C356.245 29.974 356.117 29.782 355.861 29.718L355.285 29.654C352.789 29.654 347.413 32.214 345.493 32.854C346.133 33.494 346.389 34.39 346.389 35.414C346.389 36.118 346.261 36.886 346.005 37.654C345.109 40.79 342.613 43.862 340.757 43.862L340.373 43.798C339.221 43.478 338.773 42.454 338.773 41.11C338.773 38.294 340.821 34.07 342.037 32.79C342.165 32.662 342.357 32.598 342.549 32.598C342.997 32.598 343.317 32.918 343.317 33.302C343.317 33.494 343.253 33.686 343.125 33.814C341.845 35.158 339.861 39.51 339.861 41.878C339.861 42.518 340.053 43.03 340.437 43.222L340.629 43.286C341.845 43.286 345.237 38.678 345.237 35.478C345.237 34.518 344.917 33.75 344.149 33.174C344.021 33.11 343.957 32.918 343.957 32.79C343.957 32.47 344.149 32.086 344.661 32.086H344.853C346.005 32.086 352.021 28.886 355.285 28.886C355.989 28.886 356.565 29.014 356.949 29.398C357.205 29.718 357.333 30.102 357.333 30.55C357.333 33.11 354.197 37.974 353.557 39.318C356.629 35.478 362.069 29.846 366.037 28.502C366.421 28.374 366.805 28.31 367.189 28.31C368.085 28.31 368.789 28.758 368.789 29.654C368.789 30.038 368.661 30.422 368.469 30.87C367.253 33.686 365.077 39.062 364.181 42.262C367.189 38.166 371.093 33.046 373.653 33.046L374.293 33.11C374.997 33.366 375.317 34.006 375.317 34.774C375.317 37.142 373.013 41.11 373.013 43.286V43.606C373.013 43.734 373.141 43.798 373.269 43.798C373.461 43.798 373.781 43.67 373.973 43.606H374.037C374.293 43.606 374.485 43.862 374.485 44.118C374.485 44.246 374.485 44.31 374.357 44.374C374.165 44.502 373.973 44.566 373.717 44.566C372.949 44.566 372.117 43.862 372.053 43.03V42.71C372.053 40.598 374.037 35.798 374.037 34.262C374.037 33.942 373.973 33.75 373.781 33.686H373.653C370.837 33.686 364.565 42.902 364.245 43.286C364.053 43.542 363.861 43.606 363.605 43.606C363.221 43.606 362.901 43.286 362.901 42.838V42.71C363.733 38.422 365.461 34.07 367.125 30.294L367.253 29.718C367.253 29.334 366.997 29.206 366.677 29.206L366.293 29.27C360.981 30.998 353.301 39.766 351.445 44.502C351.317 44.822 351.061 45.014 350.741 45.014ZM369.03 67.094C368.71 67.094 368.326 66.838 368.326 66.39V66.326C368.582 60.566 379.014 33.302 380.614 30.678C380.742 30.422 380.998 30.294 381.19 30.294C381.446 30.294 381.638 30.486 381.638 30.806L381.574 31.126C379.206 36.31 376.07 45.846 375.366 47.702C377.734 42.774 383.046 30.998 388.934 30.998L389.702 31.062C391.302 31.318 392.39 32.534 392.39 34.07L392.262 34.902C393.67 34.582 396.102 34.198 398.534 33.942C398.79 33.942 398.918 34.134 398.918 34.262C398.918 34.39 398.854 34.582 398.598 34.582C395.974 34.774 394.374 35.158 392.134 35.67C390.726 39.702 386.438 43.158 383.942 43.158C383.174 43.158 382.534 42.838 382.278 42.07L382.15 41.494C382.15 38.934 387.974 36.118 390.406 35.414C390.534 35.03 390.598 34.518 390.598 34.006C390.598 33.238 390.406 32.47 389.574 32.214C389.254 32.086 388.934 32.086 388.614 32.086C384.39 32.086 380.038 40.086 376.262 48.47C372.934 55.83 370.566 64.086 369.734 66.582C369.606 66.966 369.35 67.094 369.03 67.094ZM383.686 42.262C385.414 42.262 389.318 38.102 390.022 36.438C388.55 36.694 382.918 39.574 382.918 41.43V41.686C383.046 42.134 383.302 42.262 383.686 42.262ZM403.642 24.918C409.53 21.91 419.13 9.11 419.13 5.718C419.13 5.27 419.002 5.014 418.682 4.886H418.362C414.586 4.886 408.25 14.87 403.642 24.918ZM398.906 51.03H398.586C396.666 50.838 395.834 48.982 395.834 46.038C395.834 33.814 410.17 3.542 417.594 3.542C418.042 3.542 418.426 3.67 418.81 3.862C419.45 4.182 419.706 4.822 419.706 5.654C419.706 11.158 407.354 25.494 402.874 26.39C402.042 28.246 397.114 40.79 397.114 46.87C397.114 48.726 397.562 49.942 398.778 50.07H399.034C403.962 50.07 413.882 36.438 417.658 34.006C417.722 33.942 417.85 33.942 417.914 33.942C418.17 33.942 418.298 34.134 418.298 34.326C418.298 34.454 418.234 34.582 418.106 34.71C413.818 37.718 404.73 51.03 398.906 51.03ZM432.234 53.014C431.338 53.014 430.698 51.926 430.698 50.326C430.954 43.734 437.482 28.566 443.818 15.446C436.522 28.246 426.538 45.078 419.114 45.078C416.426 45.078 414.698 43.03 414.698 40.662C414.698 36.758 418.602 31.446 421.994 31.318C423.146 31.318 423.53 31.638 423.722 32.79C423.722 34.902 419.498 35.862 417.962 35.862C416.874 37.398 416.042 39.382 416.042 40.982C416.042 42.71 417.194 44.054 419.114 44.054C425.514 44.054 435.562 27.862 442.858 15.382L441.386 15.318C439.978 15.318 438.634 15.446 437.354 15.446C432.234 15.446 427.178 15.958 421.802 16.342C421.354 16.342 421.098 16.15 421.098 15.83C421.098 15.51 421.354 15.126 421.802 15.062H422.698C426.282 15.062 430.058 14.742 434.09 14.614L443.498 14.422C446.25 9.622 448.554 5.526 450.09 3.158C450.474 2.326 450.346 1.878 451.242 1.878C451.754 1.878 452.266 2.262 452.266 2.71C452.266 2.838 452.266 2.902 452.202 3.03C450.346 6.422 448.298 10.262 446.314 14.294L458.218 13.974C462.57 13.974 465.578 14.166 466.282 14.55C466.538 14.742 466.666 14.934 466.666 15.19C466.666 15.574 466.346 15.958 465.898 15.958C465.002 15.702 463.914 15.254 455.53 15.254L445.802 15.382C439.402 28.182 432.298 44.054 432.17 50.454C432.17 51.414 432.298 51.862 432.554 51.862L432.938 51.798C433.194 51.798 433.322 51.99 433.322 52.246C433.322 52.758 432.682 53.014 432.234 53.014ZM418.794 34.966C420.138 34.966 422.954 33.814 422.954 32.79C422.89 32.342 422.762 32.15 422.378 32.15C421.29 32.15 419.05 34.518 418.666 34.966H418.794Z" fill="#0E1E37"/>
</svg>
