<svg width="33" height="33" viewBox="0 0 33 33" fill="none" xmlns="http://www.w3.org/2000/svg">
<g clip-path="url(#clip0_24_4705)">
<path fill-rule="evenodd" clip-rule="evenodd" d="M11.4915 5.52336C9.2824 5.52336 7.49154 7.31422 7.49154 9.52336C7.49154 11.7325 9.2824 13.5234 11.4915 13.5234C13.7007 13.5234 15.4915 11.7325 15.4915 9.52336C15.4915 7.31422 13.7007 5.52336 11.4915 5.52336ZM4.82487 9.52336C4.82487 5.84146 7.80964 2.85669 11.4915 2.85669C15.1734 2.85669 18.1582 5.84146 18.1582 9.52336C18.1582 13.2053 15.1734 16.19 11.4915 16.19C7.80964 16.19 4.82487 13.2053 4.82487 9.52336ZM31.7677 11.2472C32.2884 11.7679 32.2884 12.6121 31.7677 13.1328L26.4343 18.4662C25.9136 18.9869 25.0694 18.9869 24.5487 18.4662L21.8821 15.7995C21.3614 15.2788 21.3614 14.4346 21.8821 13.9139C22.4028 13.3932 23.247 13.3932 23.7677 13.9139L25.4915 15.6377L29.8821 11.2472C30.4028 10.7265 31.247 10.7265 31.7677 11.2472ZM2.11082 20.8093C3.36107 19.5591 5.05676 18.8567 6.82487 18.8567H16.1582C17.9263 18.8567 19.622 19.5591 20.8722 20.8093C22.1225 22.0596 22.8249 23.7552 22.8249 25.5234V28.19C22.8249 28.9264 22.2279 29.5234 21.4915 29.5234C20.7552 29.5234 20.1582 28.9264 20.1582 28.19V25.5234C20.1582 24.4625 19.7368 23.4451 18.9866 22.6949C18.2365 21.9448 17.2191 21.5234 16.1582 21.5234H6.82487C5.764 21.5234 4.74659 21.9448 3.99644 22.6949C3.2463 23.4451 2.82487 24.4625 2.82487 25.5234V28.19C2.82487 28.9264 2.22792 29.5234 1.49154 29.5234C0.755157 29.5234 0.158203 28.9264 0.158203 28.19V25.5234C0.158203 23.7552 0.860582 22.0596 2.11082 20.8093Z" fill="#CFBB95"/>
</g>
<defs>
<clipPath id="clip0_24_4705">
<rect width="32" height="32" fill="white" transform="translate(0.158203 0.189941)"/>
</clipPath>
</defs>
</svg>
